<svg xmlns="http://www.w3.org/2000/svg" width="1000" height="1000" viewBox="0 0 143.719 155">
  <defs>
    <linearGradient id="grad1" x1="0%" y1="0%" x2="100%" y2="0%">
      <stop offset="0%" style="stop-color:rgb(241,88,97);stop-opacity:1" />
      <stop offset="100%" style="stop-color:rgb(247,143,106);stop-opacity:1" />
    </linearGradient>
  </defs>
  <path id="note" data-name="note" class="note" d="M146,45c-41.97.656-60.529,7.7-86,14-0.036,25.313.133,83.224-1,87-2.149,7.164-13.627,16.351-26,16-10.559-.3-17.942-6.793-19-11-2.758-16.267,17.75-29.076,34-23,0.667-31,.333-62,1-93C82.611,22.056,116.041,10.963,157,7c-0.191,30.293,1.176,119.318,0,125-3.225,8.677-13.387,16.156-24,17-12.332.98-21.359-6.4-22-15,0.742-13.5,15.893-23.678,35-20V45Zm0-24c-29.29,1.842-53.558,9.989-86,21a46.622,46.622,0,0,0,0,10c37.634-10.633,64.237-17.6,86-17C145.956,29.091,146.044,25.906,146,21Z" transform="translate(-13.75 -7)" fill="url(#grad1)"/>
</svg>
