<svg xmlns="http://www.w3.org/2000/svg" viewBox="0 0 390.094 13.718">
  <defs>
    <linearGradient id="grad2" x1="0%" y1="0%" x2="100%" y2="0%">
      <stop offset="0%" style="stop-color:#3d923a;stop-opacity:1" />
      <stop offset="100%" style="stop-color:#C0FF81;stop-opacity:1" />
    </linearGradient>
  </defs>
  <path id="trait_palette" data-name="trait palette" class="trait-palette" d="M62,442c1.26-2.936,4.839-3.5,20-1,9.2,0.775,8.212-.965,19-1,1.279-.163,27.444.748,34,1,1.478,0.057,29.705-.748,35-1,1.867-.089,29.47.132,69,3,18.083,1.223,39.212-.05,72-3,20.383-.371,44.658.29,67,1,32.959,0.7,36.852-1.242,59,0,5.625,0.315,2.657,2.331,15,2-7.378,4.389-9.818.939-21,1,11.132,2.936,20.836,1.694,21,4-23.27-.07-41.9-0.222-71,2-16.389-1.387-67-.531-72,0-5.756.612-50.312,3.866-74,3-29.734-2.243-47.658-2.2-65-2-20.331.24-32.421,1.161-34,1-9.813-1-26.05-1.1-33-2-5.212,1.5-32.373,2.1-38,2-0.825-.728-2.932-1.507-3-4C61.891,443.412,61.85,443.388,62,442Z" transform="translate(-61.906 -439.438)" fill="url(#grad2)"/>
</svg>
