<svg xmlns="http://www.w3.org/2000/svg" xmlns:xlink="http://www.w3.org/1999/xlink">
    <defs>
        <symbol id="shape-chic" viewBox="0 0 333 16">
            <path d="M333,428c-130.095,8.7-257.54,4.969-286,8,27.864,1.671,231.307,2.777,287,8,12.952-5.538,20.36-5.471,46-8C355.919,434.051,348.115,433.089,333,428Z" transform="translate(-47 -428)"/>
        </symbol>
        <symbol id="shape-delice" viewBox="0 0 343 15.219">
            <path d="M59,434c6.424,3.8,14.548,7.918,25,8,82.815,0.652,236.57.112,315,0l3,7c-48.96.4-248.466,0.151-320,0C63.72,447.513,62.4,441.437,59,434Z" transform="translate(-59 -434)"/>
        </symbol>
        <symbol id="shape-note" viewBox="0 0 288.313 9.937">
            <path d="M135,816c24.195,0.391,46.775.463,69,2,28,0,55.115-1.633,84,0,42.033,0.384,39.774-4.057,126,2a7,7,0,0,1,0,4c-67.645,4.32-79.842.064-128,0-28.3,1.239-57.239.5-84-1-31.5,3.105-50.45,1.823-76,2v-4A10.014,10.014,0,0,1,135,816Z" transform="translate(-126 -815.969)"/>
        </symbol>
    </defs>
</svg>